<svg xmlns="http://www.w3.org/2000/svg" width="15" height="13" viewBox="0 0 15 13">
  <defs>
    <style>
      .cls-1 {
        fill: #fff;
        fill-rule: evenodd;
      }
    </style>
  </defs>
  <path id="icon-twitter" class="cls-1" d="M85.5,41.044a5.83,5.83,0,0,1-1.768.508,3.242,3.242,0,0,0,1.352-1.808,5.83,5.83,0,0,1-1.952.792A2.981,2.981,0,0,0,80.885,39.5a3.181,3.181,0,0,0-3.075,3.281,3.939,3.939,0,0,0,.076.751,8.571,8.571,0,0,1-6.34-3.433,3.424,3.424,0,0,0-.419,1.655A3.341,3.341,0,0,0,72.5,44.487a2.954,2.954,0,0,1-1.39-.416v0.041a3.235,3.235,0,0,0,2.465,3.219,3.062,3.062,0,0,1-.809.112,3.655,3.655,0,0,1-.581-0.051,3.112,3.112,0,0,0,2.875,2.275,6.019,6.019,0,0,1-4.56,1.361A8.3,8.3,0,0,0,75.221,52.5c5.654,0,8.748-5,8.748-9.333,0-.142,0-0.285-0.01-0.427a6.818,6.818,0,0,0,1.54-1.7h0Z" transform="translate(-70.5 -39.5)"/>
</svg>
