<svg xmlns="http://www.w3.org/2000/svg" width="15" height="15" viewBox="0 0 15 15">
  <defs>
    <style>
      .cls-1 {
        fill: #fff;
        fill-rule: evenodd;
      }
    </style>
  </defs>
  <path id="icon-pinterest" class="cls-1" d="M127.5,46.377c0-4.242-3.514-7.877-7.388-7.877a7.779,7.779,0,0,0-7.612,7.877A6.607,6.607,0,0,0,117.056,53a4.187,4.187,0,0,1,.128-1.373s0.147-.481.974-4.129a3.4,3.4,0,0,1-.249-1.258c0-1.175.658-2.052,1.475-2.052a1.055,1.055,0,0,1,1.036,1.2,17.426,17.426,0,0,1-.677,2.8,1.2,1.2,0,0,0,1.086,1.526c1.127,0,1.884-1.928,1.884-4.206,0-1.668-.881-2.736-2.521-2.736a3.432,3.432,0,0,0-3.743,3.489,2.373,2.373,0,0,0,.5,1.557,0.4,0.4,0,0,1,.107.443c-0.039.144-.117,0.495-0.156,0.629a0.257,0.257,0,0,1-.373.206,3.03,3.03,0,0,1-1.733-3.03,5.488,5.488,0,0,1,5.607-5.155,5.412,5.412,0,0,1,4.805,4.743c0,3.113-2.227,5.432-4.246,5.432a2.084,2.084,0,0,1-1.7-.989c-0.449,1.617-.538,1.881-0.538,1.881a4.588,4.588,0,0,1-.778,1.273,9.49,9.49,0,0,0,2.173.248,7.109,7.109,0,0,0,7.388-7.123h0Z" transform="translate(-112.5 -38.5)"/>
</svg>
