<svg xmlns="http://www.w3.org/2000/svg" width="13" height="14" viewBox="0 0 13 14">
  <defs>
    <style>
      .cls-1 {
        fill: #fff;
        fill-rule: evenodd;
      }
    </style>
  </defs>
  <path id="icon-rss" class="cls-1" d="M201.043,51.091A1.776,1.776,0,1,0,199.272,53a1.844,1.844,0,0,0,1.771-1.909h0Zm4.724,1.223A9.241,9.241,0,0,0,203.35,46.7a8.045,8.045,0,0,0-5.213-2.605H198.09a0.543,0.543,0,0,0-.4.169,0.627,0.627,0,0,0-.194.467V46.07a0.612,0.612,0,0,0,.535.627,6.148,6.148,0,0,1,5.315,5.727,0.6,0.6,0,0,0,.581.577h1.246a0.546,0.546,0,0,0,.434-0.209,0.673,0.673,0,0,0,.156-0.477h0Zm4.732,0.02a14.57,14.57,0,0,0-3.827-9.217A12.587,12.587,0,0,0,198.118,39H198.09a0.553,0.553,0,0,0-.406.179,0.635,0.635,0,0,0-.184.457v1.422a0.613,0.613,0,0,0,.554.626c5.36,0.338,9.633,4.942,9.937,10.719a0.608,0.608,0,0,0,.591.6H209.9a0.545,0.545,0,0,0,.424-0.2,0.636,0.636,0,0,0,.174-0.467h0Z" transform="translate(-197.5 -39)"/>
</svg>
