<svg xmlns="http://www.w3.org/2000/svg" width="16" height="15" viewBox="0 0 16 15">
  <defs>
    <style>
      .cls-1 {
        fill: #fff;
        fill-rule: evenodd;
      }
    </style>
  </defs>
  <path id="icon-google-plus" class="cls-1" d="M162.585,50.775c0,1.538-1.7,2.065-2.764,2.065-1.625,0-4.053-.65-4.053-2.337,0-1.828,2.743-2.285,4.281-2.285a2.3,2.3,0,0,1,.357.018c0.818,0.624,2.179,1.309,2.179,2.539h0Zm-1.247-7.958a1.487,1.487,0,0,1-1.438,1.721,3.215,3.215,0,0,1-2.907-3.205,2.106,2.106,0,0,1,2.192-2.23c1.442,0,2.153,2.4,2.153,3.715h0Zm-1.06-4.317a10.915,10.915,0,0,0-1.666.167,3.807,3.807,0,0,0-3.424,3.66c0,1.565,1.614,2.871,3.8,2.871a4.122,4.122,0,0,0,.7-0.055,3.684,3.684,0,0,0-.157.886,3.263,3.263,0,0,0,.456,1.527c-2.043.055-4.841,0.561-5.636,2.164A2.6,2.6,0,0,0,154,50.907c0,2.019,2.235,2.593,4.666,2.593a6.858,6.858,0,0,0,3.929-1,3.181,3.181,0,0,0,1.294-2.478c0-2.616-2.956-3.139-2.956-4.461s2.253-1.464,2.253-3.549a3.218,3.218,0,0,0-1.474-2.849h0.618l1.509-.66h-3.561ZM170,40.835h-2.366V38.5h-1.27v2.335h-2.41v1.274h2.41V44.1h1.27V42.108H170V40.835h0Z" transform="translate(-154 -38.5)"/>
</svg>
